<?xml version="1.0" encoding="UTF-8"?>
<svg version="1.1" xmlns="http://www.w3.org/2000/svg" width="1024" height="1024">
<path d="M0 0 C337.92 0 675.84 0 1024 0 C1024 337.92 1024 675.84 1024 1024 C686.08 1024 348.16 1024 0 1024 C0 686.08 0 348.16 0 0 Z " fill="#FBFBF8" transform="translate(0,0)"/>
<path d="M0 0 C12.19592672 9.68888151 20.37255388 21.6050149 23.52734375 37.0078125 C23.64939704 39.68322066 23.57201688 42.32742488 23.52734375 45.0078125 C24.06359375 44.96140625 24.59984375 44.915 25.15234375 44.8671875 C48.72926751 43.78140812 71.24944273 57.62355641 88.1328125 72.7421875 C107.57041738 90.9110479 120.20162671 118.54607951 121.52734375 145.0078125 C121.60931015 150.70091379 121.57487206 156.39264479 121.45410156 162.08496094 C121.43702148 163.16551758 121.41994141 164.24607422 121.40234375 165.359375 C121.36753906 166.81077881 121.36753906 166.81077881 121.33203125 168.29150391 C121.54403887 171.23999993 122.39234117 173.29762039 123.52734375 176.0078125 C123.92920029 179.12479042 123.85989425 182.24214867 123.83984375 185.3828125 C123.8349292 186.30255859 123.83001465 187.22230469 123.82495117 188.16992188 C123.13937193 229.82501331 110.02441629 265.51933053 80.125 294.6796875 C75.27603221 299.27220052 70.01428509 303.2091608 64.52734375 307.0078125 C65.0671194 310.48330091 65.0671194 310.48330091 66.52734375 314.0078125 C69.31723244 315.13907425 69.31723244 315.13907425 72.52734375 316.0078125 C74.43686611 316.85906546 76.33120773 317.7449933 78.2109375 318.66015625 C79.29238037 319.18367676 80.37382324 319.70719727 81.48803711 320.24658203 C82.6353833 320.80716309 83.78272949 321.36774414 84.96484375 321.9453125 C87.39124737 323.13030512 89.81829581 324.31396034 92.24609375 325.49609375 C92.85690292 325.79384705 93.4677121 326.09160034 94.09703064 326.39837646 C98.03451135 328.30912388 102.00046258 330.14024904 105.99609375 331.92578125 C117.30464164 337.02008208 126.0480682 341.87845916 134.52734375 351.0078125 C135.19765625 351.61367188 135.86796875 352.21953125 136.55859375 352.84375 C153.80530894 368.46475024 165.52657185 392.38410087 175.52734375 413.0078125 C178.92309409 408.87350653 182.01830875 404.5710409 185.08984375 400.1953125 C185.61650635 399.44757568 186.14316895 398.69983887 186.68579102 397.92944336 C189.69815157 393.64340318 192.68126145 389.33869958 195.63696289 385.01342773 C226.75103004 339.48357658 226.75103004 339.48357658 248.52734375 335.0078125 C249.94173746 334.91741892 251.36007364 334.87771441 252.77734375 334.8828125 C253.48375 334.88023437 254.19015625 334.87765625 254.91796875 334.875 C257.52734375 335.0078125 257.52734375 335.0078125 259.41625977 335.42382812 C261.53561995 335.85415507 263.36522915 336.12291633 265.52734375 336.0078125 C267.88169691 334.25245804 269.20692863 332.99512859 270.96484375 330.7578125 C271.43237061 330.20714111 271.89989746 329.65646973 272.3815918 329.08911133 C273.79152251 327.41624305 275.16304538 325.71799647 276.52734375 324.0078125 C277.25695312 323.10933594 277.9865625 322.21085937 278.73828125 321.28515625 C280.16531626 319.52656106 281.58836177 317.76472253 283.0078125 316 C287.24636178 310.96631202 291.79814304 306.22660042 296.30859375 301.4375 C300.26050392 297.23972328 304.05080148 292.92490745 307.78173828 288.53027344 C309.25780315 286.79221859 310.73571213 285.05575827 312.21484375 283.3203125 C312.72716553 282.71912598 313.2394873 282.11793945 313.76733398 281.49853516 C317.81034508 276.78200272 322.00039271 272.22202685 326.24365234 267.68603516 C329.24788779 264.45410203 332.08771189 261.14836183 334.83984375 257.6953125 C339.29419998 252.14161789 344.13183119 246.99425787 349.03637695 241.84057617 C352.76921748 237.91384755 356.39608486 233.91921939 359.94677734 229.8269043 C361.94474101 227.52742526 363.98283236 225.26592955 366.02734375 223.0078125 C369.2943871 219.38757527 372.52255151 215.73797685 375.72265625 212.05859375 C377.75692516 209.74692453 379.82956685 207.4724982 381.90234375 205.1953125 C384.91824205 201.86115357 387.79146251 198.46327749 390.58984375 194.9453125 C394.82339986 189.70986499 399.35641362 184.78997981 403.96484375 179.8828125 C404.67584229 179.12347412 405.38684082 178.36413574 406.11938477 177.58178711 C406.78897217 176.87417236 407.45855957 176.16655762 408.1484375 175.4375 C408.75099365 174.80054199 409.3535498 174.16358398 409.97436523 173.50732422 C413.07724096 170.511276 416.06416224 170.61899652 420.19921875 170.65234375 C424.15504056 171.25633668 425.83392798 173.11239055 428.52734375 176.0078125 C429.76856806 179.73148542 429.97794526 182.08114216 429.52734375 186.0078125 C426.03397289 192.7715731 419.5880771 198.37733745 414.41796875 203.90234375 C411.61815076 206.89764453 408.90708636 209.96010192 406.2265625 213.0625 C404.23327947 215.3444654 402.19241348 217.58009824 400.15234375 219.8203125 C397.09875508 223.19722232 394.1830517 226.63998382 391.33984375 230.1953125 C386.43730889 236.26101468 381.10476338 241.88946227 375.7578125 247.5625 C372.81701796 250.68557172 369.96335198 253.87053342 367.1640625 257.12109375 C365.14860603 259.44440037 363.08885913 261.72529715 361.02734375 264.0078125 C358.35686031 266.96651001 355.70436317 269.93707722 353.08984375 272.9453125 C350.2791185 276.17340762 347.41154475 279.34519693 344.52734375 282.5078125 C339.54158646 287.98016772 334.64307228 293.51310144 329.8515625 299.15625 C324.30450501 305.67928902 318.66458324 312.07135977 312.81542969 318.32519531 C308.99986027 322.43061807 305.47264776 326.71871744 301.96875 331.09375 C298.4010947 335.35210337 294.60091571 339.38319951 290.77954102 343.41381836 C287.81008397 346.45778046 287.81008397 346.45778046 285.52734375 350.0078125 C286.51734375 350.3378125 287.50734375 350.6678125 288.52734375 351.0078125 C297.75754469 362.56654141 299.95128151 374.62496514 298.52734375 389.0078125 C296.15581574 401.82415534 286.25328994 413.798699 278.7578125 424.10498047 C274.50962959 429.96393273 270.45889787 435.95266539 266.40234375 441.9453125 C260.78850283 450.23297242 255.13262032 458.48770567 249.40234375 466.6953125 C244.12944041 474.24935495 238.89859748 481.82979658 233.71484375 489.4453125 C233.09456299 490.35522949 232.47428223 491.26514648 231.83520508 492.20263672 C229.01969996 496.33524721 226.21246472 500.47289568 223.42578125 504.625 C212.6599595 520.60653891 200.97421031 533.60911561 181.578125 538.46484375 C166.72204101 541.10888431 154.00310185 537.01464232 141.52734375 529.0078125 C135.9609296 525.0698109 130.20270168 520.99161418 125.52734375 516.0078125 C125.04260697 517.69372092 124.56485449 519.38163795 124.08984375 521.0703125 C123.82300781 522.01003906 123.55617188 522.94976563 123.28125 523.91796875 C117.4782551 547.70122763 122.64542234 574.32479542 125.56471252 598.22632599 C126.14166807 602.97942333 126.69999438 607.73471454 127.26074219 612.48974609 C128.43004355 622.37729174 129.62091106 632.26214659 130.81799316 642.1463623 C131.51048398 647.86443913 132.19874508 653.58301864 132.88574219 659.30175781 C133.10721347 661.14495909 133.32868968 662.98815978 133.5501709 664.83135986 C133.65880966 665.73546852 133.76744843 666.63957718 133.87937927 667.57108307 C135.25988424 679.05573617 136.64449938 690.53989113 138.03417969 702.0234375 C140.31560705 720.87974621 142.59233072 739.73641758 144.76062012 758.60614014 C145.01701836 760.83266606 145.27548249 763.05895529 145.53625488 765.28497314 C145.88588988 768.27524185 146.22741216 771.26632135 146.56640625 774.2578125 C146.66585541 775.09645844 146.76530457 775.93510437 146.86776733 776.79916382 C148.57686223 792.20909656 148.57686223 792.20909656 146.40234375 798.0078125 C142.62086959 802.04138494 138.72178596 803.18778884 133.32083797 803.38533592 C131.19523308 803.4018233 129.06946159 803.4017447 126.9438324 803.38876343 C125.77025415 803.3934434 124.5966759 803.39812337 123.38753468 803.40294516 C120.138377 803.41283016 116.88955639 803.40928696 113.6404072 803.39998651 C110.13320868 803.39319463 106.62605547 803.40367787 103.11886597 803.41192627 C96.2518695 803.42526392 89.38497141 803.42238586 82.51797109 803.41368835 C76.93748483 803.40691288 71.35702614 803.40599448 65.77653694 803.4092598 C64.58512876 803.40994934 64.58512876 803.40994934 63.36965172 803.41065282 C61.75611058 803.411612 60.14256944 803.41258464 58.5290283 803.4135706 C43.40035236 803.42212444 28.27173097 803.41229017 13.14306397 803.3961695 C0.1602087 803.38276373 -12.8225661 803.38509654 -25.80541992 803.39892578 C-40.88155264 803.41497724 -55.95763758 803.42130319 -71.03377765 803.41208899 C-72.6410735 803.41113334 -74.24836935 803.41019023 -75.85566521 803.4092598 C-76.64649137 803.40879697 -77.43731753 803.40833414 -78.25210812 803.40785729 C-83.8268063 803.40526629 -89.40147419 803.40964071 -94.97616768 803.41669846 C-101.76846998 803.42510872 -108.56066826 803.42284323 -115.35295863 803.40685622 C-118.81890905 803.39896747 -122.28468598 803.39589211 -125.75063515 803.40580368 C-129.50597418 803.41396808 -133.26082109 803.4037587 -137.01612854 803.38876343 C-138.11417378 803.39545559 -139.21221901 803.40214776 -140.34353834 803.40904272 C-149.40516928 803.33857347 -149.40516928 803.33857347 -153.47265625 800.0078125 C-154.33890625 799.42 -154.33890625 799.42 -155.22265625 798.8203125 C-158.89504326 793.49535134 -157.31701713 785.64274282 -156.4765625 779.6171875 C-156.36416733 778.75015198 -156.25177216 777.88311646 -156.13597107 776.98980713 C-155.77841374 774.244477 -155.40738875 771.50118771 -155.03515625 768.7578125 C-154.66911585 765.99987494 -154.30590387 763.24159243 -153.9450531 760.48297119 C-153.72050658 758.77298223 -153.49251143 757.06344165 -153.26063538 755.35443115 C-153.15730392 754.57972473 -153.05397247 753.80501831 -152.94750977 753.00683594 C-152.8556691 752.32925232 -152.76382843 751.6516687 -152.66920471 750.95355225 C-152.46990707 748.98059686 -152.47265625 746.99080834 -152.47265625 745.0078125 C-153.56320313 745.33265625 -153.56320313 745.33265625 -154.67578125 745.6640625 C-168.39415108 749.46299568 -179.40385848 748.72832321 -192.09765625 742.3203125 C-203.27151657 735.90598084 -210.03692656 726.40030688 -213.84765625 714.1953125 C-215.25551127 708.17457821 -215.73076259 702.60592949 -215.67578125 696.43359375 C-215.67091705 695.52387817 -215.66605286 694.6141626 -215.66104126 693.67687988 C-215.5401928 683.08517346 -214.73603158 672.55835294 -213.84765625 662.0078125 C-213.76029205 660.94289581 -213.67292786 659.87797913 -213.58291626 658.78079224 C-211.65409214 635.37690719 -209.06779537 612.05792574 -206.27587891 588.74316406 C-205.74531535 584.31126611 -205.22391893 579.8784724 -204.71240234 575.44433594 C-201.23965058 545.34472344 -197.18433047 515.34948777 -192.80130768 485.37081528 C-192.54362857 483.60827237 -192.28627091 481.84568243 -192.02925873 480.08304214 C-189.25959614 461.08846786 -186.38577009 442.11431268 -183.25390625 423.17578125 C-183.13078001 422.42553869 -183.00765377 421.67529613 -182.88079643 420.90231895 C-178.20992138 392.52994502 -169.31493126 367.11514454 -144.96484375 349.37890625 C-131.67482686 340.15155114 -117.30834644 333.25371252 -102.41015625 327.0703125 C-100.96622938 326.46436208 -99.5225474 325.85782781 -98.07910156 325.25073242 C-88.77072528 321.34396929 -79.43797497 317.49277921 -70.05834961 313.76000977 C-62.58128467 310.75499864 -57.81248772 308.62262825 -54.47265625 301.0078125 C-55.62989726 297.34080505 -58.00299022 295.52366584 -60.91015625 293.1328125 C-74.81726226 280.84887016 -85.66053653 263.61941145 -91.47265625 246.0078125 C-91.47265625 245.0178125 -91.47265625 244.0278125 -91.47265625 243.0078125 C-92.36404297 242.8221875 -92.36404297 242.8221875 -93.2734375 242.6328125 C-104.54838251 239.82722743 -113.38941749 232.85535305 -119.47265625 223.0078125 C-126.27994314 210.30087697 -129.16649604 196.85266589 -124.91015625 182.6953125 C-122.99933507 177.60208051 -120.29224759 173.44411829 -116.9609375 169.1640625 C-114.53293201 165.64632227 -114.35233449 162.49714627 -114.4453125 158.296875 C-114.45933105 157.38905273 -114.47334961 156.48123047 -114.48779297 155.54589844 C-114.50342285 154.58458008 -114.51905273 153.62326172 -114.53515625 152.6328125 C-114.67692862 126.17722911 -106.54477335 99.2153254 -88.05566406 79.49658203 C-86.87838061 78.31639886 -85.67789245 77.15943499 -84.47265625 76.0078125 C-85.4747034 72.99268409 -86.48219011 69.97985849 -87.5078125 66.97265625 C-87.84683594 65.97363281 -88.18585938 64.97460938 -88.53515625 63.9453125 C-88.87675781 62.94371094 -89.21835938 61.94210938 -89.5703125 60.91015625 C-93.96701401 46.76838473 -91.86520675 32.38902392 -85.28515625 19.3203125 C-82.07225283 13.94240647 -77.84670041 9.457927 -73.47265625 5.0078125 C-72.90675781 4.42902344 -72.34085938 3.85023438 -71.7578125 3.25390625 C-52.51168884 -14.76874744 -20.98634667 -14.57998821 0 0 Z " fill="#020503" transform="translate(258.47265625,139.9921875)"/>
<path d="M0 0 C0.90645264 0.00563965 1.81290527 0.0112793 2.74682617 0.01708984 C32.07076136 0.53428489 56.47842841 12.26341748 77.296875 32.55078125 C99.75602122 56.40239453 106.09082584 85.74805484 105.17919922 117.58447266 C104.81564215 125.14784665 103.3454048 132.13527574 101 139.3125 C100.67854004 140.3327124 100.67854004 140.3327124 100.35058594 141.37353516 C95.76323281 155.61970386 88.79824852 167.96512127 79 179.3125 C78.11441406 180.41464844 78.11441406 180.41464844 77.2109375 181.5390625 C71.33564304 188.61441711 63.30278256 196.16110872 55 200.3125 C55.60247559 200.48265625 56.20495117 200.6528125 56.82568359 200.828125 C70.39730571 204.70205168 83.32911197 209.07540289 96 215.3125 C97.73636719 216.15941406 97.73636719 216.15941406 99.5078125 217.0234375 C130.22672224 232.79001045 153.41427416 259.387181 164.43310547 292.09912109 C175.25992114 326.55572476 176.50482054 364.73368075 178.25 400.5625 C178.29119965 401.40559723 178.33239929 402.24869446 178.37484741 403.11734009 C180.14533599 440.35708935 180.14533599 440.35708935 172 450.3125 C165.88861591 456.51532624 159.22204367 460.00531686 150.39111173 460.44130117 C148.98123092 460.44398402 148.98123092 460.44398402 147.54286766 460.44672108 C146.45287669 460.45117892 145.36288571 460.45563676 144.23986471 460.46022969 C143.04795636 460.46004533 141.85604802 460.45986097 140.62802124 460.45967102 C139.357442 460.46334771 138.08686277 460.4670244 136.77778113 460.4708125 C133.253022 460.4808108 129.72827991 460.48454578 126.20350862 460.48720181 C122.4010256 460.49111128 118.59855598 460.50068911 114.79608154 460.50941467 C105.61449933 460.52916018 96.43291605 460.53924252 87.25131792 460.54814246 C82.92526168 460.5525282 78.59920667 460.55789424 74.2731514 460.56313133 C59.88878064 460.58014113 45.50441063 460.59463499 31.12003136 460.60188007 C27.3887774 460.6037899 23.65752346 460.60571024 19.92626953 460.60766602 C18.5352312 460.60839163 18.5352312 460.60839163 17.11609109 460.6091319 C2.09559455 460.61743112 -12.92482233 460.64276732 -27.94528408 460.67524669 C-43.3735564 460.70833539 -58.80178824 460.72633044 -74.23009622 460.72952431 C-82.88967034 460.73168765 -91.54912826 460.74041056 -100.20866776 460.76598549 C-107.58382575 460.78771717 -114.95883931 460.79573076 -122.3340257 460.78601871 C-126.09443094 460.78148123 -129.85453832 460.78332771 -133.6149025 460.80278015 C-137.69884978 460.82372333 -141.78213966 460.81340355 -145.86611938 460.80024719 C-147.0446434 460.81121644 -148.22316741 460.82218568 -149.43740427 460.83348733 C-159.71521996 460.75372083 -168.74080403 458.55320416 -176.34375 451.30859375 C-187.5867693 437.75863417 -183.0983236 416.01800998 -181.6187439 399.95959473 C-179.98646806 382.71206911 -177.71332372 365.54523295 -175.29168701 348.39312744 C-175.02139686 346.46512559 -174.75866373 344.5360684 -174.49658203 342.60693359 C-171.54752016 321.02729037 -166.75092969 299.90181167 -157 280.3125 C-156.44570313 279.178125 -155.89140625 278.04375 -155.3203125 276.875 C-149.24829999 265.01079123 -141.11376621 254.9689423 -132 245.3125 C-131.31550781 244.56355469 -130.63101563 243.81460938 -129.92578125 243.04296875 C-120.0226071 232.59063522 -107.67631117 224.96622054 -95 218.3125 C-94.38382813 217.98540039 -93.76765625 217.65830078 -93.1328125 217.32128906 C-83.97950617 212.53448345 -74.57632164 208.98479379 -64.75 205.8125 C-63.66614014 205.461875 -62.58228027 205.11125 -61.46557617 204.75 C-56.81908082 203.30086901 -52.90508734 202.10452607 -48 202.3125 C-48 201.6525 -48 200.9925 -48 200.3125 C-49.07701172 199.92771484 -49.07701172 199.92771484 -50.17578125 199.53515625 C-70.86790216 190.57715646 -86.57430017 168.51140743 -95 148.3125 C-105.56382453 118.98806733 -104.86554291 87.78210852 -92 59.3125 C-87.24590343 49.7537781 -81.12098299 41.25612362 -74 33.3125 C-73.38898438 32.61898437 -72.77796875 31.92546875 -72.1484375 31.2109375 C-54.30066191 12.14799421 -26.06876247 -0.1734119 0 0 Z " fill="#020503" transform="translate(753,482.6875)"/>
<path d="M0 0 C19.25895499 17.8414959 30.35814912 40.5211225 34.328125 66.30859375 C34.51797218 67.53129723 34.51797218 67.53129723 34.71165466 68.77870178 C36.14235241 78.31610049 37.03733207 87.89532251 37.875 97.5 C37.95899048 98.44361389 38.04298096 99.38722778 38.1295166 100.35943604 C39.78937178 119.07185065 41.08371302 137.79028109 41.8125 156.5625 C41.85922852 157.75262695 41.90595703 158.94275391 41.95410156 160.16894531 C42.0620833 163.3004157 42.13566497 166.42965447 42.1875 169.5625 C42.21360352 170.44083496 42.23970703 171.31916992 42.26660156 172.22412109 C42.27602634 175.53423679 42.20407785 177.95567406 40.38279247 180.77810955 C36.47383613 183.49184911 32.88059805 183.10564391 28.22688293 183.05024719 C27.24411823 183.05437046 26.26135353 183.05849372 25.24880809 183.06274194 C21.94659678 183.07169186 18.64517437 183.05198892 15.34301758 183.0324707 C12.97954716 183.03297931 10.61607655 183.03523381 8.25260925 183.03910828 C1.82725109 183.04453783 -4.59781987 183.02508973 -11.02312636 183.00100732 C-17.05597514 182.98007898 -23.08884603 182.9805993 -29.12172381 182.97897889 C-41.07233126 182.97510197 -53.02283036 182.95262921 -64.97338867 182.91918945 C-76.57983859 182.88673893 -88.1862313 182.86550608 -99.79272461 182.85766602 C-100.50798725 182.85718052 -101.22324989 182.85669503 -101.96018716 182.85619483 C-104.8348911 182.85426628 -107.70959506 182.85235415 -110.58429904 182.85047873 C-121.63319142 182.84295423 -132.68207437 182.82732545 -143.73095521 182.80998212 C-147.07225305 182.80474083 -150.41355084 182.79980795 -153.75485015 182.7956202 C-161.3736613 182.78596005 -168.99243475 182.77141403 -176.61121941 182.7487812 C-178.92481855 182.74263855 -181.23842289 182.73819965 -183.55202866 182.73553848 C-186.69566451 182.73158175 -189.8392192 182.72148809 -192.98283386 182.70967102 C-193.91102013 182.70985538 -194.8392064 182.71003975 -195.79551953 182.71022969 C-202.07326389 182.67673611 -202.07326389 182.67673611 -203.1875 181.5625 C-203.29143499 178.79466465 -203.33111236 176.05096669 -203.3293457 173.2824707 C-203.33282013 172.41414108 -203.33629456 171.54581146 -203.33987427 170.65116882 C-203.34724623 168.75829527 -203.3525839 166.86541298 -203.35616493 164.97252846 C-203.36331128 161.97568826 -203.37896516 158.97901364 -203.39750671 155.98222351 C-203.45005428 147.45895701 -203.49793911 138.9357784 -203.51342773 130.41235352 C-203.52351366 125.20444598 -203.55285847 119.99695033 -203.59474754 114.78920555 C-203.60705852 112.80415145 -203.61217863 110.81903916 -203.60994911 108.83394814 C-203.60759422 106.05202008 -203.62977838 103.27127065 -203.6574707 100.48950195 C-203.65086929 99.67107819 -203.64426788 98.85265442 -203.63746643 98.00942993 C-203.723208 92.75478052 -204.70419337 89.73300081 -208.1875 85.5625 C-211.87626027 83.71811987 -216.16080313 84.07461266 -220.1875 84.5625 C-222.76387471 86.44765223 -223.78417428 87.75584857 -225.1875 90.5625 C-225.30505333 93.42471288 -225.36272665 96.26397706 -225.37695312 99.12719727 C-225.38524643 100.01345795 -225.39353973 100.89971863 -225.40208435 101.81283569 C-225.41950462 103.74061342 -225.43466601 105.66841255 -225.44786072 107.59622383 C-225.46884132 110.64216346 -225.49586655 113.68799514 -225.52453613 116.73387146 C-225.5944654 124.2979499 -225.65384639 131.86210481 -225.71356201 139.42626953 C-225.7644007 145.81653851 -225.81919392 152.20674918 -225.87937927 158.59693718 C-225.90605271 161.60664539 -225.92680617 164.61635873 -225.9473877 167.62611389 C-225.96398273 169.45981101 -225.98085386 171.29350566 -225.99804688 173.12719727 C-226.00223129 173.97137711 -226.00641571 174.81555695 -226.01072693 175.68531799 C-226.07365424 181.44865424 -226.07365424 181.44865424 -227.1875 182.5625 C-230.17049801 182.6885341 -233.12904994 182.75119843 -236.11328125 182.765625 C-237.46198555 182.77417511 -237.46198555 182.77417511 -238.8379364 182.78289795 C-240.74537982 182.79236422 -242.65283971 182.79888836 -244.56030273 182.80273438 C-247.47734242 182.81242473 -250.39367321 182.84342623 -253.31054688 182.875 C-255.16145414 182.88153128 -257.01236645 182.88678126 -258.86328125 182.890625 C-259.73632401 182.9029718 -260.60936676 182.9153186 -261.50886536 182.92803955 C-264.85479336 182.91575373 -267.58341372 182.77852093 -270.74633789 181.64746094 C-273.23258346 178.05055476 -272.68681717 174.12670819 -272.5703125 169.875 C-272.55565948 168.89821289 -272.54100647 167.92142578 -272.52590942 166.91503906 C-272.2787043 155.74781138 -271.23533122 144.66443207 -270.0625 133.5625 C-269.95179169 132.48787506 -269.84108337 131.41325012 -269.72702026 130.30606079 C-259.44643149 30.98932596 -259.44643149 30.98932596 -220.15283203 -1.81396484 C-160.43254188 -49.63439644 -57.89127954 -50.52168414 0 0 Z " fill="#FBFAF8" transform="translate(866.1875,737.4375)"/>
<path d="M0 0 C0.8527092 -0.00581376 1.7054184 -0.01162753 2.58396727 -0.01761746 C5.43685529 -0.03219734 8.28888025 -0.01834159 11.14176178 -0.00457001 C13.20949413 -0.00917971 15.27722321 -0.01553308 17.34494543 -0.02347898 C23.0237034 -0.0401858 28.70219267 -0.03191963 34.38095164 -0.01953411 C40.50646589 -0.01049156 46.63193362 -0.02444942 52.75743866 -0.0354538 C64.06254266 -0.05222334 75.3675371 -0.05075492 86.67263837 -0.03980792 C97.11655356 -0.02974452 107.56043734 -0.02711944 118.00435638 -0.0318985 C118.69720521 -0.03220404 119.39005403 -0.03250958 120.10389827 -0.03282438 C122.91641844 -0.03406974 125.7289386 -0.03534334 128.54145875 -0.03666343 C154.92347079 -0.04889863 181.30542827 -0.03780687 207.68743189 -0.01627585 C231.1247524 0.0027065 254.56198598 0.00100798 277.99930573 -0.01811981 C304.33315251 -0.03953971 330.66695109 -0.0480309 357.00080538 -0.03567076 C359.80819224 -0.03438789 362.61557912 -0.03313653 365.422966 -0.0318985 C366.11421301 -0.03158219 366.80546001 -0.03126588 367.51765389 -0.03093999 C377.95484432 -0.02639066 388.39199989 -0.03171014 398.82918549 -0.04181671 C410.69709958 -0.05325141 422.56491103 -0.05001426 434.43282115 -0.02869374 C440.48947404 -0.01817212 446.54595037 -0.01408063 452.60260201 -0.02729034 C458.14545862 -0.03919674 463.68797478 -0.03268026 469.23080045 -0.01138014 C471.23741644 -0.00690669 473.2440611 -0.00919693 475.25065869 -0.01888329 C477.97662311 -0.03103425 480.70141904 -0.01858518 483.42732239 0 C484.59803365 -0.014047 484.59803365 -0.014047 485.79239565 -0.02837777 C491.29139646 0.04663872 495.65076016 1.36102915 500.21366119 4.50336456 C503.93061341 9.17338145 505.33912228 12.7510177 505.33670902 18.65142345 C505.33870007 19.72331565 505.34069112 20.79520784 505.3427425 21.89958161 C505.33982966 23.08147327 505.33691682 24.26336492 505.33391571 25.48107147 C505.33477014 26.73320177 505.33562456 27.98533207 505.33650488 29.2754057 C505.33874638 32.75752074 505.33473324 36.23960515 505.32972682 39.72171628 C505.32541758 43.47425485 505.32686908 47.22679162 505.32762909 50.97933197 C505.32815402 57.4830612 505.3250104 63.98678042 505.31939125 70.49050713 C505.31127213 79.89386121 505.30866061 89.29721043 505.30740326 98.70056764 C505.30521339 113.95604371 505.29855506 129.21151444 505.28910065 144.46698761 C505.27992485 159.2882764 505.27284484 174.10956374 505.26859283 188.9308548 C505.26833011 189.84408727 505.26806739 190.75731975 505.2677967 191.69822594 C505.26649169 196.27953983 505.26522797 200.86085373 505.2639848 205.44216764 C505.25361421 243.46257035 505.23599766 281.48296711 505.21366119 319.50336456 C506.45974152 319.47508575 506.45974152 319.47508575 507.73099518 319.44623566 C508.8171109 319.43157257 509.90322662 319.41690948 511.02225494 319.40180206 C512.63958527 319.37352325 512.63958527 319.37352325 514.28958893 319.34467316 C517.21366119 319.50336456 517.21366119 319.50336456 520.27616119 321.12836456 C524.50498353 326.31208227 525.72117438 330.43535229 525.50272369 337.03852081 C524.84823026 342.61940405 522.63163718 346.91375907 518.21366119 350.50336456 C514.98817079 351.57852803 512.67005258 351.63088297 509.27749634 351.63479233 C508.02980107 351.63863347 506.7821058 351.64247462 505.49660158 351.64643216 C504.10439581 351.64565188 502.71219009 351.64477308 501.31998444 351.64380646 C499.84697883 351.64638934 498.37397392 351.64940229 496.90096998 351.65280986 C492.84317451 351.66089177 488.78539671 351.66267009 484.72759414 351.66340733 C480.35535566 351.66525575 475.98312641 351.6728019 471.61089325 351.67954254 C462.04712615 351.69313365 452.48336324 351.69915146 442.91958809 351.7035532 C436.95201402 351.70631364 430.98444157 351.71055056 425.01686859 351.71505737 C408.50512799 351.72724979 391.99338869 351.73754998 375.48164368 351.74093246 C374.42456651 351.74115203 373.36748934 351.7413716 372.27837953 351.74159782 C370.6889109 351.74192523 370.6889109 351.74192523 369.06733179 351.74225926 C366.91998196 351.74270274 364.77263212 351.7431493 362.62528229 351.74359894 C361.56011625 351.74382037 360.49495021 351.7440418 359.39750642 351.74426994 C342.12437895 351.74822094 324.85129359 351.76568429 307.5781824 351.78895846 C289.8583468 351.81264259 272.13853236 351.82513293 254.41868067 351.82630038 C244.46379713 351.82721867 234.50896849 351.83300962 224.55410004 351.85112 C216.08038325 351.86648121 207.60673832 351.87166499 199.13301027 351.86338189 C194.80659432 351.85946155 190.48032328 351.86047208 186.15392494 351.87443924 C182.19759825 351.88709542 178.24152658 351.88605438 174.28520066 351.87384853 C172.84984701 351.87187707 171.4144758 351.87503606 169.9791469 351.88369289 C168.03606897 351.89467516 166.09290791 351.88556397 164.14982605 351.87530136 C163.06811017 351.87589845 161.98639428 351.87649554 160.87189913 351.87711072 C158.21366119 351.50336456 158.21366119 351.50336456 156.36828566 350.13319468 C154.694602 347.77067758 154.75857973 346.33353788 155.21366119 343.50336456 C156.71756744 341.54633331 156.71756744 341.54633331 158.77616119 339.69086456 C161.58295367 337.06165473 164.22119602 334.4333063 166.71366119 331.50336456 C167.25476044 330.88872345 167.79585969 330.27408234 168.35335588 329.64081573 C169.56024561 328.25412515 170.73716204 326.84054328 171.87657499 325.39789581 C175.51524982 321.17355647 178.1731603 319.00755766 183.82078552 318.50336456 C186.01781345 318.46263134 188.21592159 318.46556895 190.41300201 318.50336456 C191.62856891 318.49244561 192.84413581 318.48152666 194.09653807 318.47027683 C197.45462893 318.44810094 200.80910202 318.46154519 204.16691113 318.4902966 C207.79334766 318.51257867 211.4195189 318.48856694 215.04593658 318.47026825 C221.3233109 318.44488659 227.60012128 318.44862807 233.87749481 318.47232819 C242.95332648 318.50655146 252.0286896 318.49657694 261.10454267 318.47592485 C275.83044462 318.44361142 290.55611403 318.44688471 305.28202057 318.47260284 C319.58414951 318.49750451 333.88612496 318.5055141 348.18827057 318.49115753 C349.52482594 318.48984725 349.52482594 318.48984725 350.88838243 318.48851049 C357.85720531 318.48154701 364.82602698 318.47360597 371.79484844 318.46535611 C405.93459801 318.42519083 440.07375218 318.47026722 474.21366119 318.50336456 C473.88366119 223.79336456 473.55366119 129.08336456 473.21366119 31.50336456 C320.42366119 31.50336456 167.63366119 31.50336456 10.21366119 31.50336456 C9.88366119 126.21336456 9.55366119 220.92336456 9.21366119 318.50336456 C37.92366119 318.83336456 66.63366119 319.16336456 96.21366119 319.50336456 C96.54366119 321.15336456 96.87366119 322.80336456 97.21366119 324.50336456 C95.54567146 326.94142984 93.95496017 328.92228451 91.96366119 331.06586456 C91.42314117 331.67067657 90.88262115 332.27548859 90.32572174 332.89862823 C88.63652901 334.78094177 86.92688763 336.64292683 85.21366119 338.50336456 C84.14123573 339.68492075 83.06959232 340.86718734 81.99881744 342.05023956 C73.42744104 351.48675651 73.42744104 351.48675651 71.48596001 351.63758564 C70.72904177 351.64185912 69.97212353 351.6461326 69.19226837 351.65053558 C67.89277252 351.66126854 67.89277252 351.66126854 66.56702423 351.67221832 C65.60914001 351.67490723 64.6512558 351.67759613 63.66434479 351.68036652 C62.66107147 351.68693771 61.65779816 351.69350891 60.62412262 351.70027924 C57.28678064 351.72007182 53.94948384 351.73168986 50.61209869 351.74164581 C48.90550016 351.7477591 48.90550016 351.7477591 47.1644249 351.7539959 C41.13933491 351.77488498 35.11426788 351.78917272 29.08914948 351.79853058 C22.86477697 351.80958324 16.64076313 351.84396219 10.41651726 351.88370228 C5.63293546 351.9098562 0.8494391 351.9182215 -3.93420792 351.92181206 C-6.2283024 351.92668346 -8.52239293 351.93831311 -10.81641769 351.95685005 C-14.03145124 351.981208 -17.24555756 351.98028184 -20.46065521 351.97333527 C-21.87926346 351.99255035 -21.87926346 351.99255035 -23.32653046 352.01215363 C-29.33687953 351.96490224 -32.86503238 351.01435475 -37.78633881 347.50336456 C-42.06296625 342.12309132 -41.52650663 335.04286933 -40.78633881 328.50336456 C-39.65198727 325.0363209 -38.15221303 322.41496366 -35.03633881 320.33539581 C-32.10753863 319.25234991 -29.65004728 319.31067525 -26.53633881 319.37836456 C-25.45868256 319.39641144 -24.38102631 319.41445831 -23.27071381 319.43305206 C-22.04094818 319.46785675 -22.04094818 319.46785675 -20.78633881 319.50336456 C-20.78785769 318.85180826 -20.78937657 318.20025196 -20.79094148 317.52895153 C-20.88042649 278.92446913 -20.94907123 240.3200001 -20.99060012 201.71543502 C-20.99560303 197.08159365 -21.00078032 192.44775249 -21.00606537 187.81391144 C-21.00711461 186.89138534 -21.00816385 185.96885923 -21.00924489 185.0183778 C-21.02665679 170.07502264 -21.0581988 155.13172894 -21.09494999 140.18841027 C-21.13233757 124.85863691 -21.15457004 109.52889576 -21.16269279 94.19907868 C-21.16818509 84.7374341 -21.18554077 75.27596325 -21.21800467 65.81437214 C-21.23912562 59.32886451 -21.24554435 52.84344688 -21.24034432 46.35790734 C-21.23777875 42.61435223 -21.24175023 38.87110099 -21.26316071 35.12759972 C-21.28619774 31.07010913 -21.27830246 27.01326759 -21.26735687 22.95572662 C-21.27900824 21.77090065 -21.2906596 20.58607467 -21.30266404 19.36534488 C-21.2264211 8.94666645 -21.2264211 8.94666645 -16.78633881 4.50336456 C-11.27464045 0.90378394 -6.49169625 -0.07789182 0 0 Z " fill="#030504" transform="translate(451.78633880615234,100.49663543701172)"/>
<path d="M0 0 C0.05597855 0.58802399 0.11195709 1.17604797 0.16963196 1.78189087 C0.75590123 7.91545977 1.35886283 14.04722607 1.97143555 20.17822266 C2.19770751 22.46491385 2.41975534 24.7520272 2.63745117 27.03955078 C2.95155393 30.33226354 3.28094105 33.62314666 3.61328125 36.9140625 C3.70716629 37.93303619 3.80105133 38.95200989 3.89778137 40.00186157 C4.43923759 45.20917722 4.97047726 49.57277458 8 54 C10.01440383 55.61129778 10.01440383 55.61129778 12.4296875 56.60546875 C13.31624023 57.00813965 14.20279297 57.41081055 15.11621094 57.82568359 C20.06010815 59.83890283 25.06467477 61.61606782 30.125 63.3125 C31.7028125 63.85100586 31.7028125 63.85100586 33.3125 64.40039062 C35.87292573 65.27326303 38.43534112 66.13966244 41 67 C40.84273437 67.7528125 40.68546875 68.505625 40.5234375 69.28125 C39.86437228 72.70445444 39.62707183 75.51933707 40 79 C44.32794794 84.86116716 50.97366376 86.97268186 57.5 89.75 C58.70454834 90.27368164 59.90909668 90.79736328 61.15014648 91.33691406 C64.76050889 92.90597414 68.37974449 94.45389677 72 96 C73.93895016 96.83298875 75.87776499 97.6662926 77.81640625 98.5 C80.31569 99.57357239 82.81551252 100.6454149 85.3203125 101.70605469 C93.93345758 105.35888508 102.44489101 109.19772934 111 113 C111 176.03 111 239.06 111 304 C66.45 304 21.9 304 -24 304 C-24 292.74960958 -24 292.74960958 -23.30419922 287.46264648 C-23.0709066 285.65392815 -23.0709066 285.65392815 -22.832901 283.80867004 C-22.65859055 282.50926987 -22.48428009 281.20986969 -22.3046875 279.87109375 C-22.11812276 278.4458846 -21.93210032 277.02060438 -21.74656677 275.59526062 C-21.34302077 272.50530581 -20.93526045 269.41594566 -20.52432251 266.32696533 C-19.97680245 262.21076687 -19.43604609 258.09371602 -18.89762592 253.97631836 C-16.21302716 233.44897658 -13.45474437 212.93175715 -10.67432404 192.41720009 C-9.69926258 185.21599735 -8.72865234 178.01419261 -7.75778961 170.81242275 C-6.79945214 163.7099988 -5.83168378 156.60893566 -4.85717297 149.50871372 C-4.24629033 145.0439929 -3.64323098 140.57823956 -3.04213142 136.11219215 C-2.75899713 134.02136348 -2.47251758 131.93098476 -2.18249321 129.84110069 C-1.78386064 126.96565296 -1.39702964 124.08884677 -1.01293945 121.21142578 C-0.89412352 120.37557166 -0.77530758 119.53971754 -0.65289116 118.67853451 C0.13057647 112.67162443 0.62520807 107.26544156 -3.0625 102.125 C-6.70930303 99.48688717 -9.50594542 98.551474 -14 99 C-17.3905149 100.63247014 -19.38829513 101.78078353 -21.09292603 105.17835999 C-22.19033549 108.59207766 -22.69855831 111.97729976 -23.13818359 115.52124023 C-23.23648657 116.27020506 -23.33478954 117.01916988 -23.4360714 117.79083061 C-23.76321239 120.29597232 -24.08082019 122.80222813 -24.3984375 125.30859375 C-24.63138021 127.10832318 -24.86489484 128.90797866 -25.09893799 130.70756531 C-25.73303327 135.59643137 -26.35882351 140.48632944 -26.98322296 145.37644196 C-27.63924249 150.50209676 -28.3033171 155.62670809 -28.96630859 160.75146484 C-31.66297274 181.62263369 -34.32075969 202.49876355 -36.97237778 223.37569618 C-37.38734046 226.64211415 -37.80264494 229.90848849 -38.2180481 233.17485046 C-38.48994561 235.31326085 -38.76182684 237.45167331 -39.03369141 239.59008789 C-39.16657625 240.63527053 -39.2994611 241.68045317 -39.43637276 242.75730801 C-40.22418822 248.95785711 -41.007767 255.15892434 -41.7880249 261.36042881 C-42.27551256 265.23027955 -42.76582424 269.09976917 -43.25673676 272.96918678 C-43.48296284 274.75768652 -43.70792555 276.5463466 -43.93149567 278.33518028 C-44.23829957 280.78915076 -44.54956789 283.242518 -44.86181641 285.69580078 C-44.94800924 286.39448493 -45.03420208 287.09316908 -45.12300682 287.81302547 C-45.82866549 293.30071507 -46.90660002 298.53300009 -48 304 C-64.17 304 -80.34 304 -97 304 C-96.32786069 293.91791037 -95.55092733 283.92276942 -94.46875 273.88671875 C-94.3157145 272.45349156 -94.16273144 271.02025876 -94.00979614 269.58702087 C-93.51323377 264.95311012 -93.00754504 260.32021905 -92.5 255.6875 C-92.41260307 254.88793633 -92.32520615 254.08837265 -92.23516083 253.26457977 C-87.13370939 206.64548187 -80.59210637 160.25684603 -73.6875 113.875 C-73.58322945 113.1742762 -73.47895889 112.4735524 -73.37152863 111.75159454 C-71.27149187 97.65064106 -69.13155801 83.55638398 -66.8203125 69.48828125 C-66.58395332 68.03293472 -66.58395332 68.03293472 -66.34281921 66.54818726 C-63.10482329 47.14233404 -54.37241151 30.16748127 -38.375 18.3125 C-10.23628049 0 -10.23628049 0 0 0 Z " fill="#FBFAF8" transform="translate(166,489)"/>
<path d="M0 0 C29.15622277 -0.02279012 58.31244468 -0.04049805 87.46867457 -0.05106533 C90.90725767 -0.0523161 94.34584075 -0.05361042 97.78442383 -0.05493164 C98.4690123 -0.05519395 99.15360077 -0.05545626 99.85893435 -0.05572652 C110.95805419 -0.06008326 122.05716886 -0.06797083 133.15628564 -0.0771528 C144.53664527 -0.08648923 155.91700107 -0.09198069 167.29736477 -0.09408849 C173.69304953 -0.09539603 180.08872259 -0.0984846 186.48440361 -0.10573006 C192.49659405 -0.11248629 198.50876789 -0.11461778 204.52096176 -0.11310768 C206.73458382 -0.11338419 208.94820639 -0.11539165 211.16182518 -0.11920547 C214.16991091 -0.12413652 217.17793287 -0.12300048 220.1860199 -0.12025452 C221.07413422 -0.12316736 221.96224853 -0.1260802 222.87727541 -0.12908131 C228.88587879 -0.11412121 228.88587879 -0.11412121 230 1 C230.35324696 3.37225088 230.64809832 5.72851056 230.90795898 8.11157227 C231.03503235 9.22903839 231.03503235 9.22903839 231.16467285 10.36907959 C231.44590297 12.85107908 231.72095577 15.33372465 231.99609375 17.81640625 C232.19124751 19.54789251 232.38681529 21.27933214 232.58277893 23.01072693 C233.10035646 27.59254701 233.61285148 32.17492129 234.12414551 36.75744629 C234.83900409 43.15664202 235.5605046 49.55509243 236.2815094 55.95359802 C236.66515134 59.35822905 237.0468345 62.76307011 237.42686462 66.16810608 C237.60532665 67.76125542 237.78391794 69.3543903 237.96264648 70.94750977 C238.04809943 71.71209786 238.13355238 72.47668596 238.22159481 73.2644434 C238.64301452 76.99598617 239.08703344 80.72258969 239.57717896 84.44577026 C239.67040215 85.15897147 239.76362535 85.87217268 239.8596735 86.60698605 C240.11408166 88.53196312 240.37543392 90.45601894 240.63734436 92.37998962 C241.02985606 96.29802173 241.0601867 100.06535609 241 104 C238.2221813 104.92593957 236.57880736 105.12522973 233.7136898 105.12584114 C232.3941567 105.12975276 232.3941567 105.12975276 231.04796636 105.13374341 C230.08075898 105.13151268 229.1135516 105.12928196 228.11703491 105.12698364 C226.57679089 105.12932363 226.57679089 105.12932363 225.00543082 105.13171089 C221.54836527 105.13571467 218.09134326 105.13253363 214.63427734 105.12939453 C212.16258213 105.13074883 209.69088713 105.13252892 207.2191925 105.13470459 C201.19336874 105.13879994 195.16756221 105.13818835 189.14173912 105.13529195 C184.24669939 105.13303618 179.35166317 105.13272615 174.45662308 105.13381577 C173.41274236 105.13404561 173.41274236 105.13404561 172.34777314 105.13428011 C170.93417647 105.13459982 169.52057981 105.13492404 168.10698314 105.1352527 C154.84501936 105.13810577 141.58306248 105.13482296 128.32109983 105.12945233 C116.93053445 105.12498248 105.53997926 105.12576205 94.14941406 105.13037109 C80.93272408 105.13571652 67.71604015 105.13783317 54.49934924 105.13475883 C53.09148129 105.13444027 51.68361334 105.1341259 50.27574539 105.13381577 C49.23659639 105.13358435 49.23659639 105.13358435 48.17645448 105.13334826 C43.28370515 105.13248316 38.39095964 105.1339458 33.49821091 105.13629532 C26.92046483 105.13938446 20.34273509 105.13720122 13.76498985 105.13140106 C11.34334661 105.13007273 8.92170174 105.1304688 6.50005913 105.13266373 C3.20968296 105.13537232 -0.08063012 105.13199771 -3.3710022 105.12698364 C-4.82850543 105.13032973 -4.82850543 105.13032973 -6.31545317 105.13374341 C-7.62716303 105.12983178 -7.62716303 105.12983178 -8.96537209 105.12584114 C-9.72584457 105.12567879 -10.48631706 105.12551644 -11.26983416 105.12534916 C-13 105 -13 105 -14 104 C-13.82600833 93.02530195 -11.95350237 81.96589461 -10.56640625 71.09375 C-10.32591656 69.19617808 -10.08551593 67.29859486 -9.84519958 65.40100098 C-9.34401796 61.45062946 -8.84017899 57.50060721 -8.3347168 53.55078125 C-7.68797282 48.49341517 -7.05042622 43.43493491 -6.41511631 38.37612152 C-5.92296463 34.46876727 -5.42474837 30.56220392 -4.92481804 26.65583801 C-4.68703766 24.79022037 -4.45142649 22.9243249 -4.21805 21.05815125 C-3.89203159 18.45652981 -3.55755251 15.85612927 -3.22094727 13.25585938 C-3.12685074 12.49009583 -3.03275421 11.72433228 -2.93580627 10.93536377 C-2.41517562 6.98762035 -1.54836099 3.65398828 0 0 Z " fill="#FBFAF8" transform="translate(140,815)"/>
<path d="M0 0 C11.84646424 1.67463107 21.71957 14.79180327 28.62207031 23.85424805 C38.809972 37.67391972 47.09153436 52.78791066 54.52734375 68.23828125 C55.10033203 69.42099609 55.67332031 70.60371094 56.26367188 71.82226562 C57.35432567 74.09647604 58.42569121 76.38006934 59.47460938 78.67382812 C62.43689926 84.88958974 64.41596616 88.54135735 71 91 C73.42108435 91.45271126 73.42108435 91.45271126 75.625 91.0625 C76.33914063 90.99160156 77.05328125 90.92070313 77.7890625 90.84765625 C84.95329588 88.10094487 88.91760142 79.38174399 92.875 73.3125 C94.24625536 71.22451098 95.618641 69.13726379 96.9921875 67.05078125 C97.98750488 65.53798584 97.98750488 65.53798584 99.00292969 63.99462891 C101.92696158 59.61001091 104.94942418 55.2972341 108 51 C114.10167072 55.01098302 120.08915781 59.15070474 126 63.4375 C126.78165527 64.00299561 127.56331055 64.56849121 128.36865234 65.15112305 C133.66317464 68.99481158 138.90039423 72.8994398 144 77 C142.38973542 81.90701927 139.56136733 85.67946076 136.5625 89.8125 C135.47050471 91.33793393 134.37937813 92.86399006 133.2890625 94.390625 C132.46196777 95.54594727 132.46196777 95.54594727 131.61816406 96.72460938 C129.18617413 100.14436589 126.80819459 103.60008337 124.4375 107.0625 C123.98761719 107.71847168 123.53773438 108.37444336 123.07421875 109.05029297 C121.715182 111.03287058 120.35737986 113.01628769 119 115 C115.34503758 120.34146274 111.68039193 125.67602219 108 131 C107.22293701 132.12631836 107.22293701 132.12631836 106.43017578 133.27539062 C104.83427288 135.58353462 103.23069549 137.88616048 101.625 140.1875 C100.89325562 141.24795532 100.89325562 141.24795532 100.14672852 142.32983398 C94.57805495 150.2726369 86.92783333 159.01443333 77 161 C65.84704758 162.22433783 57.68956848 157.59410761 49 151 C45.55270969 148.11364318 42.24507324 145.11139835 39 142 C38.2464624 141.45762695 37.4929248 140.91525391 36.71655273 140.35644531 C32.63411101 137.07564522 29.93475783 134.23489732 29.21533203 128.95483398 C28.851132 124.0944172 28.94948398 119.24359872 29.0625 114.375 C29.09054963 111.070302 29.09580604 107.7657438 29.09765625 104.4609375 C29.10060699 103.65807312 29.10355774 102.85520874 29.1065979 102.02801514 C29.08853535 92.50965898 28.9814248 82.36191962 24 74 C19.73245547 71.15497031 16.00400644 71.27489716 11 72 C7.62768496 73.53848629 7.62768496 73.53848629 6 77 C5.13893331 83.03672565 5.91933601 88.85701595 7 94.8125 C10.12939819 114.04573559 7.17364185 132.18845532 3 151 C2.41663447 153.72639783 1.8402054 156.45415099 1.26660156 159.18261719 C0.93624052 160.74449426 0.60019858 162.30518742 0.25683594 163.86425781 C-5.94013368 192.3229527 -0.70684984 222.36074229 2.63562012 250.86779785 C3.36324255 257.12242564 4.06117487 263.38042232 4.76315308 269.63796997 C5.82575322 279.09394354 6.91516303 288.54642072 8 298 C-14.11 298 -36.22 298 -59 298 C-59.24840614 272.86095112 -59.45099356 247.72289734 -59.56993389 222.58293247 C-59.62663035 210.90974015 -59.70391173 199.23736502 -59.82983398 187.56469727 C-59.93954918 177.38952251 -60.01045784 167.21493959 -60.03497344 157.03918976 C-60.04930254 151.65190762 -60.08291958 146.26631843 -60.16303062 140.87957954 C-60.23787515 135.80570776 -60.2606939 130.73422055 -60.24418449 125.65984917 C-60.24720305 123.80099382 -60.26898567 121.94205622 -60.31126022 120.0836792 C-60.61431829 106.0702516 -60.61431829 106.0702516 -56.6322422 100.96351433 C-53.85740781 98.65835436 -51.11095879 96.81554711 -48 95 C-46.42334423 93.85691181 -44.85588766 92.70083806 -43.3046875 91.5234375 C-41.83052952 90.47058348 -40.35397134 89.42108178 -38.875 88.375 C-33.31148208 84.40792451 -27.81920324 80.40740266 -22.53125 76.07421875 C-21 75 -21 75 -19 75 C-16.14585562 69.45960209 -17.522352 64.77166785 -19 59 C-18.41508789 58.69296143 -17.83017578 58.38592285 -17.22753906 58.06958008 C-14.56209983 56.66205688 -11.90612572 55.2375151 -9.25 53.8125 C-8.32960938 53.32974609 -7.40921875 52.84699219 -6.4609375 52.34960938 C0.26804961 48.80287734 0.26804961 48.80287734 5 43 C7.56681816 31.05101892 2.93772041 17.15423295 0.45898438 5.50512695 C0 3 0 3 0 0 Z " fill="#FBFAF8" transform="translate(359,495)"/>
<path d="M0 0 C2.25182939 1.66683456 4.31497226 3.42233524 6.3828125 5.3125 C7.70345703 6.49585938 7.70345703 6.49585938 9.05078125 7.703125 C25.03751216 22.78577871 34.56484814 43.25515177 35.62890625 65.3515625 C36.23356022 87.9343085 29.93919657 109.39272502 15.0078125 126.5625 C13.48309484 128.16216141 11.94151032 129.74592997 10.3828125 131.3125 C9.65835938 132.07175781 8.93390625 132.83101562 8.1875 133.61328125 C-6.3763926 147.90564365 -26.40732694 154.10791009 -46.4921875 154.625 C-65.55152677 154.38290678 -84.64544924 147.36568107 -98.6171875 134.3125 C-99.44476562 133.57515625 -100.27234375 132.8378125 -101.125 132.078125 C-117.06481904 117.16196407 -125.89623162 96.53408437 -126.93359375 74.81640625 C-127.66803416 49.67642771 -120.26626812 28.28062873 -102.98046875 9.6875 C-75.02066358 -18.41094883 -32.7341937 -21.10622638 0 0 Z " fill="#FBFAF8" transform="translate(800.6171875,519.6875)"/>
<path d="M0 0 C3.32895624 3.19694591 6.12764801 6.39405492 8.75 10.1875 C12.79157049 15.84265418 17.23491887 20.94744596 22 26 C22.55042969 26.60328125 23.10085938 27.2065625 23.66796875 27.828125 C32.64670517 37.31676497 43.77439086 44.32670304 54.859375 51.06640625 C58 53 58 53 59 54 C59.07313567 56.53049402 59.09247527 59.03304837 59.0625 61.5625 C59.05798828 62.27341797 59.05347656 62.98433594 59.04882812 63.71679688 C59.03700864 65.47790013 59.01907263 67.23896036 59 69 C56 70 56 70 53 69 C49.99876863 68.87841061 47.02157098 68.8117753 44.01953125 68.796875 C43.13271164 68.79117493 42.24589203 68.78547485 41.3321991 68.77960205 C39.45349316 68.77015463 37.57477066 68.76361909 35.69604492 68.75976562 C32.84068279 68.75009545 29.98605151 68.71908453 27.13085938 68.6875 C25.30208759 68.68096599 23.47331067 68.67571708 21.64453125 68.671875 C20.37534599 68.6533548 20.37534599 68.6533548 19.08052063 68.63446045 C11.324632 68.6631765 4.72566716 70.43337915 -1 76 C-1.52078125 77.00933594 -2.0415625 78.01867187 -2.578125 79.05859375 C-5.14095904 82.17119703 -5.47186685 82.4547213 -9.1875 83.015625 C-10.78990467 83.12403852 -12.39467132 83.20127597 -14 83.25 C-14.80695313 83.32089844 -15.61390625 83.39179688 -16.4453125 83.46484375 C-18.79343781 83.57721278 -20.71843681 83.57267236 -23 83 C-27 78.48780488 -27 78.48780488 -27 75 C-27.57408096 74.71318863 -28.14816193 74.42637726 -28.73963928 74.13087463 C-30.17496045 73.41277319 -31.60592714 72.68584776 -33.03074646 71.9471283 C-38.62026198 69.22146 -43.1687731 68.41750699 -49.34765625 68.50390625 C-50.63185707 68.5017234 -50.63185707 68.5017234 -51.94200134 68.49949646 C-53.7378177 68.50114438 -55.53364983 68.51258025 -57.3293457 68.53344727 C-60.05937341 68.56246677 -62.78746134 68.55401969 -65.51757812 68.54101562 C-67.27344682 68.54725287 -69.02930946 68.5556437 -70.78515625 68.56640625 C-71.59058365 68.56347061 -72.39601105 68.56053497 -73.22584534 68.55751038 C-80.0552871 68.6698398 -85.76479082 69.81446213 -90.8125 74.75 C-96.05937828 82.54536202 -96.46967017 88.54008265 -96.375 97.8125 C-96.38660156 98.93720703 -96.39820313 100.06191406 -96.41015625 101.22070312 C-96.37678467 110.79278354 -95.25483307 119.08414638 -88.890625 126.52734375 C-83.20816501 130.95355742 -77.60595933 131.45807401 -70.6640625 131.43359375 C-69.78527435 131.4388356 -68.90648621 131.44407745 -68.00106812 131.44947815 C-66.15046235 131.45587286 -64.29981581 131.45459458 -62.44921875 131.44604492 C-59.63987705 131.43754501 -56.83257833 131.4663149 -54.0234375 131.49804688 C-52.21614644 131.49965958 -50.40885182 131.49908003 -48.6015625 131.49609375 C-47.7731485 131.50732773 -46.9447345 131.51856171 -46.09121704 131.53013611 C-39.37946425 131.45119375 -33.19513202 129.89125069 -28.11245728 125.29197693 C-22.01983693 118.73937209 -21.58144067 111.59920155 -21 103 C-17.85069107 101.95023036 -15.61185544 101.89868405 -12.3125 101.9375 C-11.31863281 101.94652344 -10.32476562 101.95554687 -9.30078125 101.96484375 C-8.54152344 101.97644531 -7.78226563 101.98804688 -7 102 C-6.91363281 103.0621875 -6.82726562 104.124375 -6.73828125 105.21875 C-5.8589726 116.58427094 -5.8589726 116.58427094 0 126 C8.83727053 133.08632778 20.10898746 131.59148382 30.75 131.375 C32.62888808 131.35846449 34.50779682 131.34412381 36.38671875 131.33203125 C46.74633774 131.31332658 46.74633774 131.31332658 57 130 C55.76314429 150.20197664 43.77647658 169.18119974 29.4921875 182.84765625 C10.89253165 198.91099539 -11.37101465 206.58621582 -36 205 C-59.65613201 202.03129569 -79.2604506 189.70764733 -93.83984375 171.1328125 C-102.89898023 157.99460734 -108.51475282 143.52519197 -112 128 C-112.70125 128.04640625 -113.4025 128.0928125 -114.125 128.140625 C-121.93585309 128.43777702 -127.0427916 127.52725014 -132.94140625 122.26953125 C-138.81458324 116.12660501 -141.04220265 109.91642821 -141.5 101.5 C-141.34172802 95.87343111 -139.62040562 91.33495936 -136 87 C-132.21554543 84.60215733 -128.3756083 84.2904419 -124 85 C-120.75 86.875 -120.75 86.875 -118 89 C-115.88339573 90.31165257 -115.88339573 90.31165257 -114 91 C-113.01 90.505 -113.01 90.505 -112 90 C-111.67 82.74 -111.34 75.48 -111 68 C-102.06079665 64.64779874 -102.06079665 64.64779874 -98.06640625 63.52734375 C-58.48600932 52.12894018 -22.67847919 35.96423676 0 0 Z " fill="#FAFAF7" transform="translate(296,234)"/>
<path d="M0 0 C1.20902823 -0.00657338 1.20902823 -0.00657338 2.44248128 -0.01327956 C5.15853556 -0.02669414 7.87455737 -0.03285237 10.59063721 -0.03897095 C12.53191272 -0.04686982 14.47318675 -0.05513863 16.41445923 -0.06375122 C22.80292351 -0.08999606 29.19139443 -0.10528122 35.57989502 -0.11953735 C37.7769903 -0.124896 39.97408554 -0.13027351 42.17118073 -0.13566971 C51.30891222 -0.15730196 60.44664192 -0.17603955 69.58439255 -0.1872921 C82.69076618 -0.20353649 95.79684356 -0.23672237 108.9031055 -0.29369295 C118.11250528 -0.33236302 127.32182574 -0.35192132 136.5313046 -0.35721266 C142.03466339 -0.36087011 147.5377064 -0.37293325 153.04097748 -0.4053154 C158.21862303 -0.43534429 163.39576088 -0.44172627 168.57347488 -0.42993164 C170.47379318 -0.42971047 172.37413469 -0.43805115 174.2743721 -0.45558548 C176.86956307 -0.47822879 179.46290553 -0.47000548 182.05810547 -0.45410156 C182.80967194 -0.46798365 183.56123842 -0.48186574 184.33557963 -0.49616849 C190.08455989 -0.40939566 192.38278625 1.2366615 196.28302002 5.15390015 C198.59507574 8.41179685 198.75551359 11.21645372 198.28302002 15.15390015 C195.77417312 19.97860571 193.01574987 22.53961437 188.28302002 25.15390015 C185.47009977 25.53401008 183.05486007 25.70014072 180.25033569 25.66856384 C179.45864451 25.67550937 178.66695333 25.6824549 177.85127151 25.6896109 C175.20730064 25.70785832 172.56422936 25.69762313 169.92022705 25.68734741 C168.02100962 25.6944071 166.12179782 25.70315233 164.22259521 25.7134552 C159.06959292 25.73595497 153.9168977 25.73300779 148.76386499 25.72413373 C144.45970828 25.71902257 140.15560921 25.72631758 135.85145843 25.7336058 C125.6956191 25.75060717 115.53993002 25.74703709 105.38409424 25.73031616 C94.91277572 25.71339851 84.44187417 25.72922407 73.9706012 25.76153904 C64.97506921 25.78824637 55.97966692 25.79550772 46.98409927 25.78702396 C41.61379804 25.78209762 36.24374763 25.78429452 30.87347794 25.80481148 C25.8221087 25.8231861 20.7713384 25.81718787 15.72000122 25.79261208 C13.86891859 25.78760966 12.01779019 25.79107915 10.16674423 25.80376053 C-7.22094545 25.91343363 -7.22094545 25.91343363 -13.71697998 20.15390015 C-16.29525514 16.44118392 -15.92686642 12.64697163 -15.33416748 8.31015015 C-14.3728393 4.95158585 -12.4131335 3.25821509 -9.71697998 1.15390015 C-6.63285833 -0.38816068 -3.3851535 0.00221566 0 0 Z " fill="#030504" transform="translate(510.71697998046875,171.84609985351563)"/>
<path d="M0 0 C0.56807373 0.20157715 1.13614746 0.4031543 1.72143555 0.61083984 C25.96351901 9.14322988 47.01016751 11.42769294 72.14086914 5.3671875 C74 5 74 5 77 5 C77.39832031 5.74765625 77.79664063 6.4953125 78.20703125 7.265625 C78.73683594 8.25046875 79.26664062 9.2353125 79.8125 10.25 C80.33457031 11.22453125 80.85664063 12.1990625 81.39453125 13.203125 C82.83971253 15.99284471 82.83971253 15.99284471 84.82421875 17.859375 C86 20 86 20 85.390625 23.70703125 C84.95423172 25.14653219 84.48954589 26.57769663 84 28 C83.76861328 28.67724121 83.53722656 29.35448242 83.29882812 30.05224609 C74.92122201 53.27562305 63.20930169 75.59634664 51 97 C50.34 97 49.68 97 49 97 C47.60674046 95.44759659 46.28619872 93.82970015 45 92.1875 C41.78254658 88.16052706 38.49961778 84.28942988 35 80.5 C30.10700462 75.16972614 25.51539962 69.65177519 21 64 C20.11459863 62.90753968 19.22918135 61.81509226 18.34375 60.72265625 C9.44055606 49.65739294 1.696567 38.01290921 -5.5625 25.8125 C-5.99248291 25.09344482 -6.42246582 24.37438965 -6.86547852 23.63354492 C-7.45993774 22.61804565 -7.45993774 22.61804565 -8.06640625 21.58203125 C-8.41646729 20.98624268 -8.76652832 20.3904541 -9.12719727 19.77661133 C-10.08281476 17.83142853 -10.68297671 16.1465518 -11 14 C-9.453125 11.81640625 -9.453125 11.81640625 -7.25 9.5625 C-4.3291371 6.54182344 -2.04938543 3.67722005 0 0 Z " fill="#FBFAF8" transform="translate(225,452)"/>
<path d="M0 0 C1.21058075 -0.00525696 2.4211615 -0.01051392 3.66842651 -0.01593018 C6.97222828 -0.0268367 10.27546302 -0.02433006 13.57923245 -0.01479292 C17.04509286 -0.00716771 20.51092997 -0.01424969 23.97679138 -0.01895142 C29.79463014 -0.02439995 35.61235442 -0.0172404 41.43017578 -0.00292969 C48.14733596 0.01340286 54.86422302 0.00810045 61.58137661 -0.0084089 C67.35993136 -0.02204044 73.13840408 -0.02393555 78.91696972 -0.0160929 C82.36336329 -0.01142649 85.80962864 -0.01076309 89.25601387 -0.02070236 C93.09786656 -0.03100956 96.93941533 -0.01670739 100.78125 0 C102.48566002 -0.00910904 102.48566002 -0.00910904 104.22450256 -0.0184021 C111.20748162 0.03786255 115.83009058 0.70769772 121.20092773 5.51318359 C123.47252089 9.5321561 123.74753009 12.87550998 122.82592773 17.38818359 C120.57605951 21.74038771 117.42178629 23.90931924 112.82592773 25.38818359 C110.2440424 25.64265919 110.2440424 25.64265919 107.44361877 25.64888 C106.37681885 25.65596481 105.31001892 25.66304962 104.21089172 25.67034912 C103.05075058 25.6678717 101.89060944 25.66539429 100.6953125 25.6628418 C98.85061874 25.67050819 98.85061874 25.67050819 96.96865845 25.67832947 C93.60287518 25.68983705 90.2373384 25.69230082 86.87155271 25.68976617 C84.05846664 25.68869489 81.24540318 25.6935838 78.43232197 25.69837159 C71.79421951 25.70945858 65.15617364 25.70990869 58.51806641 25.70385742 C51.67712884 25.69781701 44.83639691 25.71013206 37.99549443 25.73142749 C32.11508042 25.74905775 26.23473179 25.75504263 20.35429233 25.75178975 C16.8452593 25.74997906 13.33637299 25.7525915 9.82736397 25.76650429 C5.91347339 25.78144241 1.99984369 25.7721 -1.9140625 25.76049805 C-3.07217941 25.76814178 -4.23029633 25.77578552 -5.42350769 25.78366089 C-15.4256031 25.71806952 -15.4256031 25.71806952 -20.17407227 22.38818359 C-23.12306528 18.06299384 -23.82161967 14.56856281 -23.17407227 9.38818359 C-21.05613999 4.98288447 -18.93917667 2.80325119 -14.39430428 0.98521042 C-9.69217198 -0.27920659 -4.83578648 -0.02589047 0 0 Z " fill="#040605" transform="translate(518.174072265625,225.61181640625)"/>
<path d="M0 0 C15.51 0 31.02 0 47 0 C44.9126569 35.48483264 44.9126569 35.48483264 37.140625 42.734375 C31.23228993 47.39885006 26.27963479 49.56334395 18.69140625 49.37109375 C12.07451144 48.45874976 6.69846271 45.35405484 2.5 40.1875 C-5.28871284 28.30641262 -2.02075667 13.13491834 0 0 Z " fill="#FAFAF7" transform="translate(68,816)"/>
<path d="M0 0 C0.43828125 0.80179687 0.8765625 1.60359375 1.328125 2.4296875 C12.39484376 22.26880527 25.57382322 40.77454036 40.40625 57.96875 C42.89191647 60.87368551 45.29530753 63.83045185 47.6875 66.8125 C50.95038573 70.82567496 54.38408332 74.49839632 58.09375 78.09765625 C60.64936003 80.64802937 62.97700952 83.36826629 65.32421875 86.109375 C66.95815087 87.9527856 68.66541022 89.66516162 70.4375 91.375 C73 94 73 94 73 96 C74.485 96.495 74.485 96.495 76 97 C75.67 97.66 75.34 98.32 75 99 C74.07775635 98.56655273 73.1555127 98.13310547 72.20532227 97.68652344 C68.74482571 96.06042083 65.28375051 94.43555303 61.82250977 92.81103516 C60.33179463 92.11117041 58.8412313 91.41098221 57.35083008 90.71044922 C49.59856673 87.06691144 41.84847243 83.43315367 34 80 C34.04640625 79.11957031 34.0928125 78.23914063 34.140625 77.33203125 C34.17671875 76.17058594 34.2128125 75.00914062 34.25 73.8125 C34.29640625 72.66394531 34.3428125 71.51539063 34.390625 70.33203125 C33.91655862 66.28824504 32.90319438 64.80938368 30 62 C27.68683292 60.58435056 27.68683292 60.58435056 25 59.625 C23.96101563 59.21507812 22.92203125 58.80515625 21.8515625 58.3828125 C18.86907338 57.28400072 15.85789261 56.28927062 12.8359375 55.3046875 C11.93617188 55.0061084 11.03640625 54.7075293 10.109375 54.39990234 C8.30545856 53.80622056 6.49549387 53.23057158 4.6796875 52.67431641 C3.42671875 52.26318604 3.42671875 52.26318604 2.1484375 51.84375 C1.02187744 51.49086914 1.02187744 51.49086914 -0.12744141 51.13085938 C-2.8347917 49.49585982 -3.15083932 48.02648258 -4 45 C-4.42814681 42.35618465 -4.78451084 39.75993196 -5.0703125 37.1015625 C-5.15626678 36.34837738 -5.24222107 35.59519226 -5.33078003 34.81918335 C-5.51050254 33.23106935 -5.68679753 31.64256414 -5.85986328 30.05371094 C-6.1234764 27.63895654 -6.39873042 25.22574562 -6.67578125 22.8125 C-6.84965095 21.2630984 -7.02284996 19.71362136 -7.1953125 18.1640625 C-7.27653351 17.45029449 -7.35775452 16.73652649 -7.44143677 16.00112915 C-7.90998635 11.64793115 -8.27397688 7.37470344 -8 3 C-5.15739513 0.61835808 -3.71594733 0 0 0 Z " fill="#F9F9F7" transform="translate(195,478)"/>
<path d="M0 0 C6.13340448 3.39938197 10.79294672 8.82356056 12.9375 15.5 C13.2734375 18.11328125 13.2734375 18.11328125 13.3125 20.8125 C13.34085938 21.69550781 13.36921875 22.57851563 13.3984375 23.48828125 C12.19541608 31.34870089 6.76262524 38.07402917 2.375 44.5 C1.79814453 45.37011719 1.22128906 46.24023438 0.62695312 47.13671875 C0.06814453 47.95785156 -0.49066406 48.77898438 -1.06640625 49.625 C-1.56986572 50.37007812 -2.0733252 51.11515625 -2.59204102 51.8828125 C-3.07729248 52.41648437 -3.56254395 52.95015625 -4.0625 53.5 C-8.44803546 53.5 -10.86808647 50.84717802 -14.1875 48.25 C-20.22427986 43.61731796 -26.33264447 39.1200196 -32.5625 34.75 C-33.31031738 34.2250293 -34.05813477 33.70005859 -34.82861328 33.15917969 C-36.57185744 31.93747485 -38.3169596 30.71842177 -40.0625 29.5 C-38.45907015 24.55529119 -35.59468368 20.78722498 -32.5 16.6875 C-31.9649585 15.97770996 -31.42991699 15.26791992 -30.87866211 14.53662109 C-23.18406204 4.53811794 -13.59671785 -5.95515162 0 0 Z " fill="#FAFAF8" transform="translate(521.0625,499.5)"/>
<path d="M0 0 C2 1 2 1 2.9296875 3.5 C6.58472965 17.03271804 10.29884806 31.93188663 10 46 C9.08504761 46.45270264 9.08504761 46.45270264 8.15161133 46.91455078 C5.36451248 48.30373088 2.58865186 49.71407885 -0.1875 51.125 C-1.14720703 51.599375 -2.10691406 52.07375 -3.09570312 52.5625 C-8.6000827 55.38135183 -12.65478162 57.72104779 -16 63 C-16.66437365 65.36124812 -16.66437365 65.36124812 -16.4375 67.625 C-16.41558594 68.35976563 -16.39367187 69.09453125 -16.37109375 69.8515625 C-15.96484411 72.2035341 -15.16648695 73.92936855 -14 76 C-19.00045651 80.68093852 -24.33928233 84.89229127 -29.8125 89 C-30.47064697 89.5050708 -31.12879395 90.0101416 -31.80688477 90.53051758 C-33.4799705 91.7693706 -35.23567957 92.89494521 -37 94 C-40.20983037 92.93005654 -40.8772316 92.46825791 -42.6875 89.75 C-43.70703125 87.54296875 -43.70703125 87.54296875 -44 85 C-42.2987425 80.9135908 -39.79701879 77.43459726 -37.26171875 73.83349609 C-35.15227549 70.76810931 -33.26015207 67.58173391 -31.375 64.375 C-30.76072144 63.33098022 -30.76072144 63.33098022 -30.1340332 62.26586914 C-18.70871577 42.58810042 -7.21601901 21.64805702 0 0 Z " fill="#F9F9F7" transform="translate(332,482)"/>
<path d="M0 0 C1.08378685 -0.01354271 1.08378685 -0.01354271 2.18946838 -0.02735901 C3.7184738 -0.04187302 5.24754149 -0.05075112 6.77661133 -0.05444336 C9.11711095 -0.06634626 11.45497872 -0.1155168 13.79492188 -0.16601562 C15.27993503 -0.17547916 16.7649644 -0.18271453 18.25 -0.1875 C19.30011513 -0.21679848 19.30011513 -0.21679848 20.3714447 -0.24668884 C22.35327148 -0.22827148 22.35327148 -0.22827148 25.69140625 0.37109375 C29.02972171 4.34623899 29.09698331 7.77491781 29.06640625 12.87109375 C29.07800781 14.8046875 29.07800781 14.8046875 29.08984375 16.77734375 C28.65718064 20.6797953 28.20145281 22.37937851 25.69140625 25.37109375 C23.00005905 25.86712205 20.93909481 26.0278203 18.25 25.96484375 C17.52651871 25.96488403 16.80303741 25.96492432 16.05763245 25.96496582 C14.53027648 25.95960989 13.00292129 25.94202334 11.47583008 25.91308594 C9.13342503 25.8711746 6.79388906 25.87201952 4.45117188 25.87890625 C2.96742787 25.86841555 1.48369872 25.85547807 0 25.83984375 C-0.70210098 25.83964233 -1.40420197 25.83944092 -2.12757874 25.8392334 C-4.09985352 25.79101562 -4.09985352 25.79101562 -7.30859375 25.37109375 C-9.41836135 22.20644235 -9.5641198 21.39715602 -9.57421875 17.7734375 C-9.57679688 16.88978516 -9.579375 16.00613281 -9.58203125 15.09570312 C-9.57429688 14.17595703 -9.5665625 13.25621094 -9.55859375 12.30859375 C-9.56632812 11.38498047 -9.5740625 10.46136719 -9.58203125 9.50976562 C-9.57945312 8.62740234 -9.576875 7.74503906 -9.57421875 6.8359375 C-9.57196289 6.02761475 -9.56970703 5.21929199 -9.56738281 4.38647461 C-8.89209521 -0.87248687 -4.16443989 0.03180831 0 0 Z " fill="#FBFBF9" transform="translate(317.30859375,321.62890625)"/>
<path d="M0 0 C0.7437085 0.00016113 1.48741699 0.00032227 2.25366211 0.00048828 C4.52143509 -0.00388356 6.78725932 -0.04019084 9.0546875 -0.078125 C10.49413396 -0.08399347 11.93358968 -0.08796266 13.37304688 -0.08984375 C14.68523193 -0.09806152 15.99741699 -0.1062793 17.34936523 -0.11474609 C20.59570312 0.37109375 20.59570312 0.37109375 22.5222168 2.15185547 C24.19992788 5.62021884 24.02827962 9.10303212 23.97070312 12.87109375 C23.98230469 13.63035156 23.99390625 14.38960938 24.00585938 15.171875 C23.98972198 18.24335859 23.87153703 20.80085718 22.5222168 23.59033203 C19.61439009 26.27816476 17.27159333 25.85644653 13.37304688 25.83203125 C12.67176163 25.83111481 11.97047638 25.83019836 11.24794006 25.82925415 C9.76768207 25.8232193 8.28743623 25.80747636 6.80737305 25.78271484 C4.53779298 25.74616766 2.2698438 25.74169571 0 25.7421875 C-11.10913473 25.66625589 -11.10913473 25.66625589 -13.40429688 23.37109375 C-13.66308594 21.24804688 -13.66308594 21.24804688 -13.66992188 18.65234375 C-13.6725 17.72035156 -13.67507812 16.78835938 -13.67773438 15.828125 C-13.67 14.85230469 -13.66226563 13.87648438 -13.65429688 12.87109375 C-13.66203125 11.89527344 -13.66976562 10.91945313 -13.67773438 9.9140625 C-13.67515625 8.98207031 -13.67257813 8.05007813 -13.66992188 7.08984375 C-13.66766602 6.23326172 -13.66541016 5.37667969 -13.66308594 4.49414062 C-12.87969512 -1.93262029 -4.90366129 0.03351682 0 0 Z " fill="#FBFBF9" transform="translate(232.404296875,321.62890625)"/>
<path d="M0 0 C0.33 0 0.66 0 1 0 C1 1.65 1 3.3 1 5 C1.99 4.67 2.98 4.34 4 4 C5.3597373 3.91105439 6.72343455 3.87623537 8.08607769 3.87695217 C8.92109898 3.87496112 9.75612028 3.87297007 10.61644524 3.87091869 C11.992406 3.87528795 11.992406 3.87528795 13.39616394 3.87974548 C14.37061268 3.87889106 15.34506141 3.87803663 16.3490389 3.87715632 C19.62878851 3.87550336 22.90848748 3.88101992 26.18823242 3.88647461 C28.53347268 3.88675655 30.87871304 3.88659862 33.22395325 3.8860321 C39.60374511 3.88574439 45.9835183 3.89163702 52.36330581 3.89860606 C58.35119849 3.90421226 64.33909118 3.9052284 70.32698599 3.90625793 C82.18829042 3.90844732 94.04958798 3.91510435 105.91088867 3.92456055 C117.4340003 3.93373758 128.95711006 3.94081699 140.48022461 3.94506836 C141.19034139 3.94533108 141.90045816 3.94559381 142.63209363 3.94586449 C146.19449067 3.94716952 149.75688773 3.94843323 153.3192848 3.94967639 C182.87952763 3.96004548 212.4397637 3.977735 242 4 C242 4.33 242 4.66 242 5 C245.3 5.33 248.6 5.66 252 6 C252 6.33 252 6.66 252 7 C220.04110647 7.02278973 188.08221524 7.04049784 156.12331549 7.05106533 C152.35426435 7.05231611 148.58521322 7.05361042 144.81616211 7.05493164 C144.06578011 7.05519395 143.31539811 7.05545626 142.54227727 7.05572652 C130.37618081 7.06008336 118.21008905 7.06797098 106.04399539 7.0771528 C93.56978397 7.08648896 81.09557501 7.09205553 68.62136024 7.09408849 C60.91788797 7.0954638 53.21442899 7.09981479 45.51096081 7.10791647 C39.61392925 7.11380415 33.71690459 7.11445906 27.81987 7.11310768 C25.39339046 7.11338421 22.96691044 7.11539192 20.54043388 7.11920547 C17.24333198 7.12413586 13.94628826 7.12300072 10.64918518 7.12025452 C9.67547 7.12316736 8.70175482 7.1260802 7.69853312 7.12908131 C6.82220978 7.12709026 5.94588644 7.12509921 5.04300785 7.12304783 C4.28090915 7.12342755 3.51881045 7.12380727 2.73361784 7.1241985 C1 7 1 7 0 6 C-0.04080783 4.00041636 -0.04254356 1.99954746 0 0 Z " fill="#D4D4D0" transform="translate(126,913)"/>
<path d="M0 0 C0.33 0 0.66 0 1 0 C1 100.98 1 201.96 1 306 C-1.97 306 -4.94 306 -8 306 C-8 305.01 -8 304.02 -8 303 C-6.02 303 -4.04 303 -2 303 C-1.08614516 299.88014399 -0.87084961 297.08412532 -0.8613348 293.83821487 C-0.85586036 292.7887154 -0.85038591 291.73921593 -0.84474558 290.65791345 C-0.84376747 289.50617127 -0.84278936 288.3544291 -0.84178162 287.16778564 C-0.83437465 285.33118586 -0.83437465 285.33118586 -0.82681805 283.45748305 C-0.81410105 280.05744099 -0.80581908 276.65743994 -0.79939139 273.25738358 C-0.79138673 269.59142272 -0.77768917 265.92548265 -0.76467896 262.25953674 C-0.74291716 255.90753073 -0.72477158 249.55552262 -0.70907402 243.20349884 C-0.6863727 234.01951077 -0.65823023 224.83554574 -0.62875474 215.6515772 C-0.58108206 200.75161502 -0.53781699 185.85164343 -0.49731445 170.95166016 C-0.45795789 156.47671781 -0.41653127 142.00178382 -0.37231445 127.52685547 C-0.36959018 126.63479468 -0.36686591 125.7427339 -0.36405908 124.82364097 C-0.35037958 120.3484861 -0.33665931 115.87333135 -0.32291877 111.39817667 C-0.20895907 74.26546849 -0.10214859 37.13274246 0 0 Z " fill="#B1B2AE" transform="translate(430,114)"/>
<path d="M0 0 C0.33 0 0.66 0 1 0 C1 28.05 1 56.1 1 85 C-1.97 85 -4.94 85 -8 85 C-8 84.01 -8 83.02 -8 82 C-6.02 82 -4.04 82 -2 82 C-0.77787655 78.17657223 -0.82665086 74.35762713 -0.79467773 70.38574219 C-0.78477814 69.62437958 -0.77487854 68.86301697 -0.76467896 68.07858276 C-0.73315224 65.56804488 -0.70834153 63.05748809 -0.68359375 60.546875 C-0.66301659 58.80380773 -0.64201992 57.06074536 -0.62062073 55.31768799 C-0.56547871 50.73433408 -0.51603477 46.15093572 -0.46777344 41.56750488 C-0.4175009 36.88871311 -0.36184488 32.20998572 -0.30664062 27.53125 C-0.19915533 18.3542217 -0.09768903 9.17713744 0 0 Z " fill="#B4B5B2" transform="translate(430,335)"/>
<path d="M0 0 C0.33 0 0.66 0 1 0 C1 9.9 1 19.8 1 30 C-1.97 30 -4.94 30 -8 30 C-8 29.01 -8 28.02 -8 27 C-6.02 27 -4.04 27 -2 27 C-1.08341617 23.82946805 -0.81167961 20.87176138 -0.68359375 17.578125 C-0.64169922 16.55332031 -0.59980469 15.52851563 -0.55664062 14.47265625 C-0.49766602 12.87744141 -0.49766602 12.87744141 -0.4375 11.25 C-0.37272461 9.63158203 -0.37272461 9.63158203 -0.30664062 7.98046875 C-0.20071011 5.32043572 -0.09863579 2.66031188 0 0 Z " fill="#B7B7B3" transform="translate(430,390)"/>
<path d="M0 0 C0.33 0 0.66 0 1 0 C1.05392397 2.77109307 1.09363455 5.54113818 1.125 8.3125 C1.14175781 9.09818359 1.15851563 9.88386719 1.17578125 10.69335938 C1.18222656 11.45068359 1.18867188 12.20800781 1.1953125 12.98828125 C1.20578613 13.68477783 1.21625977 14.38127441 1.22705078 15.09887695 C1 17 1 17 -1 20 C-1.66 19.67 -2.32 19.34 -3 19 C-2.67 16.69 -2.34 14.38 -2 12 C-1.34 12 -0.68 12 0 12 C0 8.04 0 4.08 0 0 Z " fill="#F4F4F2" transform="translate(255,326)"/>
<path d="M0 0 C0.33 0 0.66 0 1 0 C0.67 4.62 0.34 9.24 0 14 C-0.99 14.33 -1.98 14.66 -3 15 C-2.88529863 13.24929483 -2.75780972 11.49942464 -2.625 9.75 C-2.55539063 8.77546875 -2.48578125 7.8009375 -2.4140625 6.796875 C-2.01534751 4.10366811 -1.36492937 2.33036721 0 0 Z " fill="#F2F3F1" transform="translate(57,682)"/>
<path d="M0 0 C0.99 0 1.98 0 3 0 C2.67 3.63 2.34 7.26 2 11 C1.01 11.33 0.02 11.66 -1 12 C-0.67 8.04 -0.34 4.08 0 0 Z " fill="#EAEAE8" transform="translate(143,777)"/>
<path d="M0 0 C1.9375 0.8125 1.9375 0.8125 4 2 C4.33 2.99 4.66 3.98 5 5 C5.99 5.33 6.98 5.66 8 6 C7.67 6.66 7.34 7.32 7 8 C4.36 6.68 1.72 5.36 -1 4 C-0.67 2.68 -0.34 1.36 0 0 Z " fill="#E1E1E0" transform="translate(263,569)"/>
<path d="M0 0 C4.62 0 9.24 0 14 0 C14 0.33 14 0.66 14 1 C12.44033408 1.36644578 10.87707349 1.71760862 9.3125 2.0625 C8.44238281 2.25972656 7.57226562 2.45695312 6.67578125 2.66015625 C3.83998724 3.02032279 1.75210018 2.70909969 -1 2 C-0.67 1.34 -0.34 0.68 0 0 Z " fill="#161817" transform="translate(242,302)"/>
<path d="M0 0 C1.20628008 2.33214148 2.1654738 4.49642139 3 7 C0.03 7 -2.94 7 -6 7 C-6 6.01 -6 5.02 -6 4 C-4.02 4 -2.04 4 0 4 C0 2.68 0 1.36 0 0 Z " fill="#CECECC" transform="translate(428,413)"/>
<path d="M0 0 C0.99 0 1.98 0 3 0 C2.67 2.97 2.34 5.94 2 9 C1.01 8.67 0.02 8.34 -1 8 C-0.67 5.36 -0.34 2.72 0 0 Z " fill="#171816" transform="translate(168,173)"/>
<path d="M0 0 C4.455 0.99 4.455 0.99 9 2 C8.67 2.99 8.34 3.98 8 5 C5.36 4.01 2.72 3.02 0 2 C0 1.34 0 0.68 0 0 Z " fill="#F4F4F3" transform="translate(816,710)"/>
<path d="M0 0 C2 2 2 2 2.125 5.125 C2.08375 6.07375 2.0425 7.0225 2 8 C1.01 8 0.02 8 -1 8 C-0.67 5.36 -0.34 2.72 0 0 Z " fill="#F1F1F0" transform="translate(74,746)"/>
<path d="M0 0 C0.66 0.33 1.32 0.66 2 1 C2 2.32 2 3.64 2 5 C-0.97 4.505 -0.97 4.505 -4 4 C-2.68 2.68 -1.36 1.36 0 0 Z " fill="#ECEDEB" transform="translate(811,680)"/>
<path d="M0 0 C2.29013653 3.4352048 2.17842973 4.985331 2 9 C1.01 8.67 0.02 8.34 -1 8 C-0.67 5.36 -0.34 2.72 0 0 Z " fill="#EEEDEB" transform="translate(61,643)"/>
</svg>
